<svg width="24" height="24" viewBox="0 0 24 24" fill="none" xmlns="http://www.w3.org/2000/svg">
<path d="M11.625 12.9167C12.8736 12.9167 13.9392 12.4753 14.8219 11.5927C15.7045 10.7101 16.1458 9.64444 16.1458 8.39583C16.1458 7.14722 15.7045 6.0816 14.8219 5.19896C13.9392 4.31632 12.8736 3.875 11.625 3.875C10.3764 3.875 9.31076 4.31632 8.42812 5.19896C7.54549 6.0816 7.10417 7.14722 7.10417 8.39583C7.10417 9.64444 7.54549 10.7101 8.42812 11.5927C9.31076 12.4753 10.3764 12.9167 11.625 12.9167ZM2.58333 23.25C1.87292 23.25 1.26454 22.9973 0.758208 22.4918C0.252736 21.9855 0 21.3771 0 20.6667V2.58333C0 1.87292 0.252736 1.26454 0.758208 0.758208C1.26454 0.252736 1.87292 0 2.58333 0H20.6667C21.3771 0 21.9855 0.252736 22.4918 0.758208C22.9973 1.26454 23.25 1.87292 23.25 2.58333V20.6667C23.25 21.3771 22.9973 21.9855 22.4918 22.4918C21.9855 22.9973 21.3771 23.25 20.6667 23.25H2.58333ZM2.58333 20.6667H20.6667V19.1812C19.5042 18.0403 18.1535 17.1413 16.6147 16.4842C15.075 15.8281 13.4118 15.5 11.625 15.5C9.83819 15.5 8.17539 15.8281 6.63658 16.4842C5.09692 17.1413 3.74583 18.0403 2.58333 19.1812V20.6667Z" fill="#021C29"/>
</svg>
