<svg width="430" height="424" viewBox="0 0 430 424" fill="none" xmlns="http://www.w3.org/2000/svg">
<path d="M37.5 424L7 371L68 371L37.5 424Z" fill="#021C29" fill-opacity="0.3"/>
<path d="M169.5 424L139 371L200 371L169.5 424Z" fill="#021C29" fill-opacity="0.3"/>
<path d="M301.5 424L271 371L332 371L301.5 424Z" fill="#021C29" fill-opacity="0.3"/>
<path d="M103.5 424L73 371L134 371L103.5 424Z" fill="#021C29" fill-opacity="0.3"/>
<path d="M235.5 424L205 371L266 371L235.5 424Z" fill="#021C29" fill-opacity="0.3"/>
<path d="M367.5 424L337 371L398 371L367.5 424Z" fill="#021C29" fill-opacity="0.5"/>
<path d="M70.5 371L101 424L40 424L70.5 371Z" fill="#021C29" fill-opacity="0.5"/>
<path d="M202.5 371L233 424L172 424L202.5 371Z" fill="#021C29" fill-opacity="0.5"/>
<path d="M334.5 371L365 424L304 424L334.5 371Z" fill="#021C29" fill-opacity="0.3"/>
<path d="M136.5 371L167 424L106 424L136.5 371Z" fill="#021C29" fill-opacity="0.3"/>
<path d="M268.5 371L299 424L238 424L268.5 371Z" fill="#021C29" fill-opacity="0.3"/>
<path d="M400.5 371L431 424L370 424L400.5 371Z" fill="#021C29" fill-opacity="0.3"/>
<path d="M4.5 371L35 424L-26 424L4.5 371Z" fill="#021C29" fill-opacity="0.3"/>
<path d="M433.5 424L403 371L464 371L433.5 424Z" fill="#021C29" fill-opacity="0.3"/>
<path d="M37.5 371L7 318L68 318L37.5 371Z" fill="#021C29" fill-opacity="0.3"/>
<path d="M169.5 371L139 318L200 318L169.5 371Z" fill="#021C29" fill-opacity="0.3"/>
<path d="M301.5 371L271 318L332 318L301.5 371Z" fill="#021C29" fill-opacity="0.3"/>
<path d="M103.5 371L73 318L134 318L103.5 371Z" fill="#021C29" fill-opacity="0.3"/>
<path d="M235.5 371L205 318L266 318L235.5 371Z" fill="#021C29" fill-opacity="0.3"/>
<path d="M367.5 371L337 318L398 318L367.5 371Z" fill="#021C29" fill-opacity="0.5"/>
<path d="M70.5 318L101 371L40 371L70.5 318Z" fill="#021C29" fill-opacity="0.5"/>
<path d="M202.5 318L233 371L172 371L202.5 318Z" fill="#021C29" fill-opacity="0.5"/>
<path d="M334.5 318L365 371L304 371L334.5 318Z" fill="#021C29" fill-opacity="0.3"/>
<path d="M136.5 318L167 371L106 371L136.5 318Z" fill="#021C29" fill-opacity="0.3"/>
<path d="M268.5 318L299 371L238 371L268.5 318Z" fill="#021C29" fill-opacity="0.3"/>
<path d="M400.5 318L431 371L370 371L400.5 318Z" fill="#021C29" fill-opacity="0.3"/>
<path d="M4.5 318L35 371L-26 371L4.5 318Z" fill="#021C29" fill-opacity="0.3"/>
<path d="M433.5 371L403 318L464 318L433.5 371Z" fill="#021C29" fill-opacity="0.3"/>
<path d="M37.5 318L7 265L68 265L37.5 318Z" fill="#021C29" fill-opacity="0.3"/>
<path d="M169.5 318L139 265L200 265L169.5 318Z" fill="#021C29" fill-opacity="0.3"/>
<path d="M301.5 318L271 265L332 265L301.5 318Z" fill="#021C29" fill-opacity="0.3"/>
<path d="M103.5 318L73 265L134 265L103.5 318Z" fill="#021C29" fill-opacity="0.3"/>
<path d="M235.5 318L205 265L266 265L235.5 318Z" fill="#021C29" fill-opacity="0.3"/>
<path d="M367.5 318L337 265L398 265L367.5 318Z" fill="#021C29" fill-opacity="0.5"/>
<path d="M70.5 265L101 318L40 318L70.5 265Z" fill="#021C29" fill-opacity="0.5"/>
<path d="M202.5 265L233 318L172 318L202.5 265Z" fill="#021C29" fill-opacity="0.5"/>
<path d="M334.5 265L365 318L304 318L334.5 265Z" fill="#021C29" fill-opacity="0.3"/>
<path d="M136.5 265L167 318L106 318L136.5 265Z" fill="#021C29" fill-opacity="0.3"/>
<path d="M268.5 265L299 318L238 318L268.5 265Z" fill="#021C29" fill-opacity="0.3"/>
<path d="M400.5 265L431 318L370 318L400.5 265Z" fill="#021C29" fill-opacity="0.3"/>
<path d="M4.5 265L35 318L-26 318L4.5 265Z" fill="#021C29" fill-opacity="0.3"/>
<path d="M433.5 318L403 265L464 265L433.5 318Z" fill="#021C29" fill-opacity="0.3"/>
<path d="M37.5 265L7 212L68 212L37.5 265Z" fill="#021C29" fill-opacity="0.3"/>
<path d="M169.5 265L139 212L200 212L169.5 265Z" fill="#021C29" fill-opacity="0.3"/>
<path d="M301.5 265L271 212L332 212L301.5 265Z" fill="#021C29" fill-opacity="0.3"/>
<path d="M103.5 265L73 212L134 212L103.5 265Z" fill="#021C29" fill-opacity="0.3"/>
<path d="M235.5 265L205 212L266 212L235.5 265Z" fill="#021C29" fill-opacity="0.3"/>
<path d="M367.5 265L337 212L398 212L367.5 265Z" fill="#021C29" fill-opacity="0.5"/>
<path d="M70.5 212L101 265L40 265L70.5 212Z" fill="#021C29" fill-opacity="0.5"/>
<path d="M202.5 212L233 265L172 265L202.5 212Z" fill="#021C29" fill-opacity="0.5"/>
<path d="M334.5 212L365 265L304 265L334.5 212Z" fill="#021C29" fill-opacity="0.3"/>
<path d="M136.5 212L167 265L106 265L136.5 212Z" fill="#021C29" fill-opacity="0.3"/>
<path d="M268.5 212L299 265L238 265L268.5 212Z" fill="#021C29" fill-opacity="0.3"/>
<path d="M400.5 212L431 265L370 265L400.5 212Z" fill="#021C29" fill-opacity="0.3"/>
<path d="M4.5 212L35 265L-26 265L4.5 212Z" fill="#021C29" fill-opacity="0.3"/>
<path d="M433.5 265L403 212L464 212L433.5 265Z" fill="#021C29" fill-opacity="0.3"/>
<path d="M37.5 212L7 159L68 159L37.5 212Z" fill="#021C29" fill-opacity="0.3"/>
<path d="M169.5 212L139 159L200 159L169.5 212Z" fill="#021C29" fill-opacity="0.3"/>
<path d="M301.5 212L271 159L332 159L301.5 212Z" fill="#021C29" fill-opacity="0.3"/>
<path d="M103.5 212L73 159L134 159L103.5 212Z" fill="#021C29" fill-opacity="0.3"/>
<path d="M235.5 212L205 159L266 159L235.5 212Z" fill="#021C29" fill-opacity="0.3"/>
<path d="M367.5 212L337 159L398 159L367.5 212Z" fill="#021C29" fill-opacity="0.5"/>
<path d="M70.5 159L101 212L40 212L70.5 159Z" fill="#021C29" fill-opacity="0.5"/>
<path d="M202.5 159L233 212L172 212L202.5 159Z" fill="#021C29" fill-opacity="0.5"/>
<path d="M334.5 159L365 212L304 212L334.5 159Z" fill="#021C29" fill-opacity="0.3"/>
<path d="M136.5 159L167 212L106 212L136.5 159Z" fill="#021C29" fill-opacity="0.3"/>
<path d="M268.5 159L299 212L238 212L268.5 159Z" fill="#021C29" fill-opacity="0.3"/>
<path d="M400.5 159L431 212L370 212L400.5 159Z" fill="#021C29" fill-opacity="0.3"/>
<path d="M4.5 159L35 212L-26 212L4.5 159Z" fill="#021C29" fill-opacity="0.3"/>
<path d="M433.5 212L403 159L464 159L433.5 212Z" fill="#021C29" fill-opacity="0.3"/>
<path d="M37.5 159L7 106L68 106L37.5 159Z" fill="#021C29" fill-opacity="0.3"/>
<path d="M169.5 159L139 106L200 106L169.5 159Z" fill="#021C29" fill-opacity="0.3"/>
<path d="M301.5 159L271 106L332 106L301.5 159Z" fill="#021C29" fill-opacity="0.3"/>
<path d="M103.5 159L73 106L134 106L103.5 159Z" fill="#021C29" fill-opacity="0.3"/>
<path d="M235.5 159L205 106L266 106L235.5 159Z" fill="#021C29" fill-opacity="0.3"/>
<path d="M367.5 159L337 106L398 106L367.5 159Z" fill="#021C29" fill-opacity="0.5"/>
<path d="M70.5 106L101 159L40 159L70.5 106Z" fill="#021C29" fill-opacity="0.5"/>
<path d="M202.5 106L233 159L172 159L202.5 106Z" fill="#021C29" fill-opacity="0.5"/>
<path d="M334.5 106L365 159L304 159L334.5 106Z" fill="#021C29" fill-opacity="0.3"/>
<path d="M136.5 106L167 159L106 159L136.5 106Z" fill="#021C29" fill-opacity="0.3"/>
<path d="M268.5 106L299 159L238 159L268.5 106Z" fill="#021C29" fill-opacity="0.3"/>
<path d="M400.5 106L431 159L370 159L400.5 106Z" fill="#021C29" fill-opacity="0.3"/>
<path d="M4.5 106L35 159L-26 159L4.5 106Z" fill="#021C29" fill-opacity="0.3"/>
<path d="M433.5 159L403 106L464 106L433.5 159Z" fill="#021C29" fill-opacity="0.3"/>
<path d="M37.5 106L7 53L68 53L37.5 106Z" fill="#021C29" fill-opacity="0.3"/>
<path d="M169.5 106L139 53L200 53L169.5 106Z" fill="#021C29" fill-opacity="0.3"/>
<path d="M301.5 106L271 53L332 53L301.5 106Z" fill="#021C29" fill-opacity="0.3"/>
<path d="M103.5 106L73 53L134 53L103.5 106Z" fill="#021C29" fill-opacity="0.3"/>
<path d="M235.5 106L205 53L266 53L235.5 106Z" fill="#021C29" fill-opacity="0.3"/>
<path d="M367.5 106L337 53L398 53L367.5 106Z" fill="#021C29" fill-opacity="0.5"/>
<path d="M70.5 53L101 106L40 106L70.5 53Z" fill="#021C29" fill-opacity="0.5"/>
<path d="M202.5 53L233 106L172 106L202.5 53Z" fill="#021C29" fill-opacity="0.5"/>
<path d="M334.5 53L365 106L304 106L334.5 53Z" fill="#021C29" fill-opacity="0.3"/>
<path d="M136.5 53L167 106L106 106L136.5 53Z" fill="#021C29" fill-opacity="0.3"/>
<path d="M268.5 53L299 106L238 106L268.5 53Z" fill="#021C29" fill-opacity="0.3"/>
<path d="M400.5 53L431 106L370 106L400.5 53Z" fill="#021C29" fill-opacity="0.3"/>
<path d="M4.5 53L35 106L-26 106L4.5 53Z" fill="#021C29" fill-opacity="0.3"/>
<path d="M433.5 106L403 53L464 53L433.5 106Z" fill="#021C29" fill-opacity="0.3"/>
<path d="M37.5 53L7 1.51809e-06L68 -3.8147e-06L37.5 53Z" fill="#021C29" fill-opacity="0.3"/>
<path d="M169.5 53L139 1.51809e-06L200 -3.8147e-06L169.5 53Z" fill="#021C29" fill-opacity="0.3"/>
<path d="M301.5 53L271 1.51809e-06L332 -3.8147e-06L301.5 53Z" fill="#021C29" fill-opacity="0.3"/>
<path d="M103.5 53L73 1.51809e-06L134 -3.8147e-06L103.5 53Z" fill="#021C29" fill-opacity="0.3"/>
<path d="M235.5 53L205 1.51809e-06L266 -3.8147e-06L235.5 53Z" fill="#021C29" fill-opacity="0.3"/>
<path d="M367.5 53L337 1.51809e-06L398 -3.8147e-06L367.5 53Z" fill="#021C29" fill-opacity="0.5"/>
<path d="M70.5 5.33279e-06L101 53L40 53L70.5 5.33279e-06Z" fill="#021C29" fill-opacity="0.5"/>
<path d="M202.5 5.33279e-06L233 53L172 53L202.5 5.33279e-06Z" fill="#021C29" fill-opacity="0.5"/>
<path d="M334.5 5.33279e-06L365 53L304 53L334.5 5.33279e-06Z" fill="#021C29" fill-opacity="0.3"/>
<path d="M136.5 5.33279e-06L167 53L106 53L136.5 5.33279e-06Z" fill="#021C29" fill-opacity="0.3"/>
<path d="M268.5 5.33279e-06L299 53L238 53L268.5 5.33279e-06Z" fill="#021C29" fill-opacity="0.3"/>
<path d="M400.5 5.33279e-06L431 53L370 53L400.5 5.33279e-06Z" fill="#021C29" fill-opacity="0.3"/>
<path d="M4.5 5.33279e-06L35 53L-26 53L4.5 5.33279e-06Z" fill="#021C29" fill-opacity="0.3"/>
<path d="M433.5 53L403 1.51809e-06L464 -3.8147e-06L433.5 53Z" fill="#021C29" fill-opacity="0.3"/>
</svg>
