<svg width="26" height="29" viewBox="0 0 26 29" fill="none" xmlns="http://www.w3.org/2000/svg">
<path d="M23.1111 2.9H21.6667V0H18.7778V2.9H7.22222V0H4.33333V2.9H2.88889C1.28556 2.9 0.0144444 4.205 0.0144444 5.8L0 26.1C0 26.8691 0.304364 27.6068 0.846136 28.1506C1.38791 28.6945 2.12271 29 2.88889 29H23.1111C24.7 29 26 27.695 26 26.1V5.8C26 4.205 24.7 2.9 23.1111 2.9ZM23.1111 26.1H2.88889V11.6H23.1111V26.1ZM8.66667 17.4H5.77778V14.5H8.66667V17.4ZM14.4444 17.4H11.5556V14.5H14.4444V17.4ZM20.2222 17.4H17.3333V14.5H20.2222V17.4ZM8.66667 23.2H5.77778V20.3H8.66667V23.2ZM14.4444 23.2H11.5556V20.3H14.4444V23.2ZM20.2222 23.2H17.3333V20.3H20.2222V23.2Z" fill="#021C29"/>
</svg>
