<svg width="65" height="49" viewBox="0 0 65 49" fill="none" xmlns="http://www.w3.org/2000/svg">
<path d="M64.3357 36.6997H64.3089L59.9401 14.0518C59.9401 14.025 59.9401 14.025 59.9133 13.9982C59.2417 10.2927 57.291 6.94041 54.4012 4.52571C51.5114 2.11101 47.8658 0.787066 44.0999 0.784668L20.5139 0.865075C16.7304 0.859252 13.0665 2.18982 10.1684 4.62205C7.27031 7.05429 5.32433 10.4319 4.67376 14.159V14.2126L0.304983 36.6729C0.0814644 37.921 0.106829 39.201 0.379621 40.4392C0.652412 41.6775 1.16725 42.8496 1.89454 43.8883C2.62183 44.9269 3.54723 45.8115 4.61754 46.4913C5.68785 47.1711 6.88197 47.6327 8.13125 47.8495C8.67857 47.9573 9.23515 48.0112 9.79299 48.0103C12.3521 48.0049 14.8067 46.9942 16.6276 45.1961L16.7348 45.062L27.6433 33.001L36.9973 32.9474L47.879 45.0888L48.0131 45.2229C49.8208 47.0244 52.2687 48.0363 54.8208 48.0371C55.3875 48.0367 55.9529 47.9829 56.5094 47.8763C59.0258 47.4252 61.2615 45.9965 62.7279 43.9023C64.1943 41.8082 64.7723 39.2187 64.3357 36.6997V36.6997ZM25.8744 19.0906H23.7302V21.2348C23.7302 21.8035 23.5043 22.3489 23.1022 22.751C22.7001 23.1531 22.1547 23.379 21.586 23.379C21.0173 23.379 20.4719 23.1531 20.0698 22.751C19.6677 22.3489 19.4418 21.8035 19.4418 21.2348V19.0906H17.2976C16.729 19.0906 16.1836 18.8647 15.7815 18.4626C15.3794 18.0605 15.1535 17.5151 15.1535 16.9464C15.1535 16.3778 15.3794 15.8324 15.7815 15.4303C16.1836 15.0282 16.729 14.8023 17.2976 14.8023H19.4418V12.6581C19.4418 12.0894 19.6677 11.544 20.0698 11.1419C20.4719 10.7398 21.0173 10.5139 21.586 10.5139C22.1547 10.5139 22.7001 10.7398 23.1022 11.1419C23.5043 11.544 23.7302 12.0894 23.7302 12.6581V14.8023H25.8744C26.443 14.8023 26.9884 15.0282 27.3905 15.4303C27.7926 15.8324 28.0185 16.3778 28.0185 16.9464C28.0185 17.5151 27.7926 18.0605 27.3905 18.4626C26.9884 18.8647 26.443 19.0906 25.8744 19.0906ZM36.5953 16.9464C36.5953 16.3778 36.8212 15.8324 37.2233 15.4303C37.6254 15.0282 38.1708 14.8023 38.7395 14.8023H47.3162C47.8849 14.8023 48.4303 15.0282 48.8324 15.4303C49.2345 15.8324 49.4604 16.3778 49.4604 16.9464C49.4604 17.5151 49.2345 18.0605 48.8324 18.4626C48.4303 18.8647 47.8849 19.0906 47.3162 19.0906H38.7395C38.1708 19.0906 37.6254 18.8647 37.2233 18.4626C36.8212 18.0605 36.5953 17.5151 36.5953 16.9464ZM55.7589 43.6683C54.9184 43.8158 54.0548 43.7615 53.2393 43.5099C52.4238 43.2583 51.6798 42.8165 51.0685 42.221L42.733 32.9742H44.0999C46.8354 32.9768 49.5263 32.2817 51.9182 30.9544C54.3101 29.6271 56.3239 27.7117 57.7691 25.3892L60.1009 37.5038C60.3347 38.896 60.0099 40.3243 59.197 41.4785C58.384 42.6327 57.1486 43.4196 55.7589 43.6683Z" fill="#003049"/>
</svg>
