<svg width="58" height="53" viewBox="0 0 58 53" fill="none" xmlns="http://www.w3.org/2000/svg">
<path d="M37.1804 20.5891C39.9421 20.5891 42.1835 22.8305 42.1835 25.5922V39.1692C42.1835 42.582 40.8278 45.855 38.4145 48.2682C36.0013 50.6814 32.7283 52.0371 29.3155 52.0371C25.9027 52.0371 22.6297 50.6814 20.2165 48.2682C17.8033 45.855 16.4476 42.582 16.4476 39.1692V25.5922C16.4476 22.8305 18.6861 20.5891 21.4507 20.5891H37.1804ZM15.3869 20.5891C14.3572 21.8283 13.7378 23.3568 13.6144 24.9632L13.5858 25.5922V39.1692C13.5858 41.5907 14.1347 43.8835 15.1124 45.9305C13.4179 46.3838 11.6418 46.4413 9.92151 46.0986C8.20119 45.7559 6.58274 45.0221 5.19131 43.954C3.79987 42.8859 2.67273 41.5121 1.89703 39.9388C1.12133 38.3655 0.71787 36.6349 0.717834 34.8808V25.5922C0.717881 24.3366 1.19004 23.1269 2.04059 22.2033C2.89115 21.2796 4.0579 20.7096 5.30925 20.6062L5.72093 20.5891H15.3869ZM43.2441 20.5891H52.893C55.6547 20.5891 57.896 22.8305 57.896 25.5922V34.8837C57.8964 36.6366 57.4938 38.3662 56.7193 39.9388C55.9448 41.5114 54.8191 42.8849 53.4292 43.9532C52.0393 45.0214 50.4224 45.7558 48.7035 46.0997C46.9846 46.4435 45.2096 46.3876 43.5157 45.9362C44.3734 44.1408 44.8994 42.1624 45.0167 40.0697L45.0424 39.1692V25.5922C45.0424 23.691 44.3677 21.9471 43.2413 20.5891H43.2441ZM29.3069 0.576721C31.5816 0.576721 33.7632 1.48034 35.3716 3.08879C36.9801 4.69724 37.8837 6.87876 37.8837 9.15345C37.8837 11.4281 36.9801 13.6097 35.3716 15.2181C33.7632 16.8266 31.5816 17.7302 29.3069 17.7302C27.0323 17.7302 24.8507 16.8266 23.2423 15.2181C21.6338 13.6097 20.7302 11.4281 20.7302 9.15345C20.7302 6.87876 21.6338 4.69724 23.2423 3.08879C24.8507 1.48034 27.0323 0.576721 29.3069 0.576721ZM47.8899 3.43563C49.7854 3.43563 51.6034 4.18865 52.9438 5.52902C54.2841 6.8694 55.0371 8.68733 55.0371 10.5829C55.0371 12.4785 54.2841 14.2964 52.9438 15.6368C51.6034 16.9772 49.7854 17.7302 47.8899 17.7302C45.9943 17.7302 44.1763 16.9772 42.836 15.6368C41.4956 14.2964 40.7426 12.4785 40.7426 10.5829C40.7426 8.68733 41.4956 6.8694 42.836 5.52902C44.1763 4.18865 45.9943 3.43563 47.8899 3.43563ZM10.724 3.43563C12.6196 3.43563 14.4375 4.18865 15.7779 5.52902C17.1183 6.8694 17.8713 8.68733 17.8713 10.5829C17.8713 12.4785 17.1183 14.2964 15.7779 15.6368C14.4375 16.9772 12.6196 17.7302 10.724 17.7302C8.82845 17.7302 7.01051 16.9772 5.67013 15.6368C4.32976 14.2964 3.57675 12.4785 3.57675 10.5829C3.57675 8.68733 4.32976 6.8694 5.67013 5.52902C7.01051 4.18865 8.82845 3.43563 10.724 3.43563Z" fill="#003049"/>
</svg>
