<svg width="58" height="58" viewBox="0 0 58 58" fill="none" xmlns="http://www.w3.org/2000/svg">
<path d="M55.0371 46.4604H49.3193V37.8836C49.3193 37.1254 49.0181 36.3982 48.482 35.8621C47.9458 35.3259 47.2186 35.0247 46.4604 35.0247H32.1659V27.2771L35.3964 28.9638C35.8675 29.2103 36.3981 29.3205 36.9284 29.282C37.4587 29.2436 37.9677 29.058 38.3984 28.7462C38.829 28.4343 39.1642 28.0086 39.3662 27.5167C39.5682 27.0249 39.629 26.4865 39.5418 25.962L38.3983 19.1864L43.3156 14.3548C43.688 13.9911 43.9541 13.5326 44.0851 13.0288C44.2161 12.525 44.2071 11.995 44.0589 11.4959C43.8932 10.9878 43.5884 10.5363 43.1791 10.1927C42.7698 9.84906 42.2723 9.62705 41.7432 9.55184L35.0248 8.49404L31.88 2.31879C31.6459 1.83544 31.2803 1.42779 30.8253 1.14256C30.3702 0.857335 29.844 0.706055 29.3069 0.706055C28.7699 0.706055 28.2437 0.857335 27.7886 1.14256C27.3335 1.42779 26.968 1.83544 26.7339 2.31879L23.5891 8.49404L16.7563 9.49466C16.2272 9.56987 15.7298 9.79188 15.3204 10.1355C14.9111 10.4791 14.6063 10.9306 14.4406 11.4387C14.2925 11.9378 14.2834 12.4678 14.4144 12.9716C14.5454 13.4754 14.8115 13.9339 15.1839 14.2976L20.2156 19.1864L19.072 25.962C18.9849 26.4865 19.0457 27.0249 19.2477 27.5167C19.4497 28.0086 19.7849 28.4343 20.2155 28.7462C20.6461 29.058 21.1552 29.2436 21.6855 29.282C22.2158 29.3205 22.7463 29.2103 23.2175 28.9638L26.448 27.2771V35.0247H12.1535C11.3952 35.0247 10.6681 35.3259 10.1319 35.8621C9.59577 36.3982 9.29457 37.1254 9.29457 37.8836V46.4604H3.57675C2.81852 46.4604 2.09134 46.7616 1.55519 47.2977C1.01904 47.8339 0.717834 48.5611 0.717834 49.3193V55.0371C0.717834 55.7953 1.01904 56.5225 1.55519 57.0587C2.09134 57.5948 2.81852 57.896 3.57675 57.896C4.33498 57.896 5.06215 57.5948 5.5983 57.0587C6.13445 56.5225 6.43566 55.7953 6.43566 55.0371V52.1782H17.8713V55.0371C17.8713 55.7953 18.1725 56.5225 18.7087 57.0587C19.2448 57.5948 19.972 57.896 20.7302 57.896C21.4884 57.896 22.2156 57.5948 22.7518 57.0587C23.2879 56.5225 23.5891 55.7953 23.5891 55.0371V49.3193C23.5891 48.5611 23.2879 47.8339 22.7518 47.2977C22.2156 46.7616 21.4884 46.4604 20.7302 46.4604H15.0124V40.7426H43.6015V46.4604H37.8837C37.1254 46.4604 36.3983 46.7616 35.8621 47.2977C35.326 47.8339 35.0248 48.5611 35.0248 49.3193V55.0371C35.0248 55.7953 35.326 56.5225 35.8621 57.0587C36.3983 57.5948 37.1254 57.896 37.8837 57.896C38.6419 57.896 39.3691 57.5948 39.9052 57.0587C40.4414 56.5225 40.7426 55.7953 40.7426 55.0371V52.1782H52.1782V55.0371C52.1782 55.7953 52.4794 56.5225 53.0156 57.0587C53.5517 57.5948 54.2789 57.896 55.0371 57.896C55.7954 57.896 56.5225 57.5948 57.0587 57.0587C57.5948 56.5225 57.896 55.7953 57.896 55.0371V49.3193C57.896 48.5611 57.5948 47.8339 57.0587 47.2977C56.5225 46.7616 55.7954 46.4604 55.0371 46.4604ZM29.3069 19.6724C28.8377 19.6747 28.3762 19.7926 27.9633 20.0155L25.6761 21.2162L26.105 18.6432C26.18 18.1881 26.1438 17.7215 25.9994 17.2834C25.855 16.8453 25.6068 16.4487 25.2759 16.1273L23.4176 14.2976L25.9906 13.926C26.4509 13.8645 26.8893 13.6918 27.2679 13.4228C27.6465 13.1538 27.9538 12.7966 28.1634 12.3822L29.3069 10.0379L30.4505 12.3822C30.66 12.7966 30.9674 13.1538 31.346 13.4228C31.7246 13.6918 32.163 13.8645 32.6233 13.926L35.1963 14.2976L33.338 16.1273C33.0071 16.4487 32.7589 16.8453 32.6145 17.2834C32.4701 17.7215 32.4339 18.1881 32.5089 18.6432L32.9378 21.2162L30.6506 20.0155C30.2377 19.7926 29.7762 19.6747 29.3069 19.6724Z" fill="#003049"/>
</svg>
